<?xml version="1.0" encoding="utf-8"?>
<!-- Generator: Adobe Illustrator 15.0.0, SVG Export Plug-In  -->
<!DOCTYPE svg PUBLIC "-//W3C//DTD SVG 1.1//EN" "http://www.w3.org/Graphics/SVG/1.1/DTD/svg11.dtd" [
	<!ENTITY ns_flows "http://ns.adobe.com/Flows/1.0/">
]>
<svg version="1.1"
	 xmlns="http://www.w3.org/2000/svg" xmlns:xlink="http://www.w3.org/1999/xlink" xmlns:a="http://ns.adobe.com/AdobeSVGViewerExtensions/3.0/"
	 x="0px" y="0px" width="612px" height="626px" viewBox="-74 -141.112 612 626"
	 overflow="visible" enable-background="new -74 -141.112 612 626" xml:space="preserve">
<defs>
</defs>
<path fill-rule="evenodd" clip-rule="evenodd" d="M329,41.888c19.354-15.256,42.784-55.829,75-37c7.035,4.112,28.911,24.727,35,35
	c16.796,28.339-13.825,51.825-28,66c-1.516,1.516-8.083,9.961-9,10c-2.764,0.118-15.272-14.272-19-18
	C363.943,78.832,346.045,61.129,329,41.888z"/>
<path fill-rule="evenodd" clip-rule="evenodd" d="M389,126.888c-3.753,6.247-8.753,11.247-15,15c-23.083-24.583-47.917-47.417-71-72
	c2.934-6.066,8.402-9.598,13-14C341.916,77.972,363.917,103.972,389,126.888z"/>
<path fill-rule="evenodd" clip-rule="evenodd" d="M39,342.888c21.583,19.084,44.583,42.083,62,62
	c-33.293,14.04-68.203,26.465-101,41C9.428,411.983,27.429,377.984,39,342.888z"/>
<path fill-rule="evenodd" clip-rule="evenodd" d="M144,226.888c40.984-40.984,82.102-81.102,125-124
	c4.394-4.394,17.397-20.889,20-21c2.901-0.124,16.243,15.294,19,18c18.154,17.817,36.013,37.324,54,54
	c-29.917,33.083-62.416,63.584-94,95l-26,24c-8.5,8.5-21.778,23.777-30,32c-30.716,30.716-62.074,63.529-92,92
	c-25.916-22.084-47.917-48.083-73-71c17.548-20.785,37.799-38.868,57-58 M104,268.888"/>
<path fill-rule="evenodd" clip-rule="evenodd" d="M124,247.888c0.814,3.224,2.502,12.326,6,16c-6.356,3.388-20.896-1.186-23,3
	C108.589,260.468,118.371,253.599,124,247.888z"/>
</svg>
